<?xml version="1.0" encoding="UTF-8" standalone="no"?>
<!DOCTYPE svg PUBLIC "-//W3C//DTD SVG 1.1//EN" "http://www.w3.org/Graphics/SVG/1.1/DTD/svg11.dtd">
<svg width="100%" height="100%" viewBox="0 0 234 60" version="1.1" xmlns="http://www.w3.org/2000/svg" xmlns:xlink="http://www.w3.org/1999/xlink" xml:space="preserve" xmlns:serif="http://www.serif.com/" style="fill-rule:evenodd;clip-rule:evenodd;stroke-linecap:round;stroke-linejoin:round;stroke-miterlimit:1.5;">
    <g transform="matrix(2.65909,0,0,1.93548,0,0)">
        <rect x="0" y="0" width="88" height="31" style="fill:rgb(30,160,143);"/>
    </g>
    <g transform="matrix(0.209867,0,0,0.209867,-30.2641,-22.5296)">
        <circle cx="299.93" cy="250.141" r="120.352" style="fill:rgb(26,26,26);"/>
    </g>
    <g transform="matrix(1.93548,0,0,1.93548,1.32631,0.450726)">
        <g transform="matrix(0.14039,0,0,0.14039,-25.9071,-19.8533)">
            <circle cx="299.93" cy="175.634" r="13.38" style="fill:rgb(30,160,143);"/>
        </g>
        <g transform="matrix(0.127237,-0.0593314,0.0593314,0.127237,-36.7973,1.23079)">
            <circle cx="299.93" cy="175.634" r="13.38" style="fill:rgb(30,160,143);"/>
        </g>
        <g transform="matrix(0.0902409,-0.107545,0.107545,0.0902409,-37.7566,24.9419)">
            <circle cx="299.93" cy="175.634" r="13.38" style="fill:rgb(30,160,143);"/>
        </g>
        <g transform="matrix(0.0363356,-0.135606,0.135606,0.0363356,-28.6053,46.8369)">
            <circle cx="299.93" cy="175.634" r="13.38" style="fill:rgb(30,160,143);"/>
        </g>
        <g transform="matrix(-0.0243785,-0.138257,0.138257,-0.0243785,-11.0582,62.813)">
            <circle cx="299.93" cy="175.634" r="13.38" style="fill:rgb(30,160,143);"/>
        </g>
        <g transform="matrix(-0.0805244,-0.115001,0.115001,-0.0805244,11.5967,69.8765)">
            <circle cx="299.93" cy="175.634" r="13.38" style="fill:rgb(30,160,143);"/>
        </g>
        <g transform="matrix(-0.121581,-0.070195,0.070195,-0.121581,35.1142,66.7038)">
            <circle cx="299.93" cy="175.634" r="13.38" style="fill:rgb(30,160,143);"/>
        </g>
        <g transform="matrix(-0.139856,-0.0122358,0.0122358,-0.139856,55.0874,53.8895)">
            <circle cx="299.93" cy="175.634" r="13.38" style="fill:rgb(30,160,143);"/>
        </g>
        <g transform="matrix(0.127237,0.0593314,-0.0593314,0.127237,-7.12671,-34.3597)">
            <circle cx="299.93" cy="175.634" r="13.38" style="fill:rgb(30,160,143);"/>
        </g>
        <g transform="matrix(0.0902409,0.107545,-0.107545,0.0902409,16.0247,-39.5699)">
            <circle cx="299.93" cy="175.634" r="13.38" style="fill:rgb(30,160,143);"/>
        </g>
    </g>
    <g transform="matrix(0.209867,0,0,0.209867,-30.2641,-22.5296)">
        <path d="M327.907,322.72C330.544,333.003 333.276,355.264 337.784,359.771L336.276,370.493C336.276,370.493 350.341,373.959 368.111,357.974C368.111,357.974 342.838,347.782 335.915,319.248C334.759,314.482 326.42,316.924 327.907,322.72Z" style="fill:rgb(242,242,242);stroke:black;stroke-width:2.38px;"/>
    </g>
    <g transform="matrix(3.21798,0,0,3.21798,-56.0684,-19.6364)">
        <path d="M40.443,17.337C40.369,17.337 40.306,17.311 40.255,17.259C40.203,17.208 40.178,17.145 40.178,17.072L40.178,14.856L39.868,14.856C39.54,15.317 39.175,15.695 38.775,15.989C38.375,16.284 37.893,16.532 37.328,16.733C37.299,16.748 37.267,16.755 37.233,16.755C37.159,16.755 37.097,16.728 37.045,16.674C36.994,16.62 36.968,16.559 36.968,16.49C36.968,16.431 36.985,16.378 37.019,16.332C37.054,16.285 37.098,16.252 37.152,16.232C37.603,16.075 37.99,15.889 38.311,15.673C38.633,15.457 38.931,15.184 39.206,14.856L38.359,14.856C38.236,14.856 38.132,14.813 38.046,14.727C37.96,14.641 37.917,14.537 37.917,14.414L37.917,12.507C37.917,12.384 37.96,12.28 38.046,12.194C38.132,12.108 38.236,12.065 38.359,12.065L40.178,12.065L40.178,11.543L37.549,11.543C37.476,11.543 37.413,11.517 37.362,11.465C37.31,11.414 37.284,11.351 37.284,11.278C37.284,11.204 37.31,11.141 37.362,11.09C37.413,11.038 37.476,11.013 37.549,11.013L40.178,11.013L40.178,10.637C40.178,10.563 40.203,10.501 40.255,10.449C40.306,10.398 40.369,10.372 40.443,10.372C40.516,10.372 40.579,10.398 40.63,10.449C40.682,10.501 40.708,10.563 40.708,10.637L40.708,11.013L43.336,11.013C43.41,11.013 43.472,11.038 43.524,11.09C43.575,11.141 43.601,11.204 43.601,11.278C43.601,11.351 43.575,11.414 43.524,11.465C43.472,11.517 43.41,11.543 43.336,11.543L40.708,11.543L40.708,12.065L42.526,12.065C42.649,12.065 42.753,12.108 42.839,12.194C42.925,12.28 42.968,12.384 42.968,12.507L42.968,14.414C42.968,14.537 42.925,14.641 42.839,14.727C42.753,14.813 42.649,14.856 42.526,14.856L41.68,14.856C41.954,15.184 42.253,15.457 42.574,15.673C42.896,15.889 43.282,16.075 43.734,16.232C43.788,16.252 43.832,16.285 43.866,16.332C43.9,16.378 43.918,16.431 43.918,16.49C43.918,16.559 43.892,16.62 43.84,16.674C43.789,16.728 43.726,16.755 43.653,16.755C43.618,16.755 43.586,16.748 43.557,16.733C42.992,16.532 42.51,16.284 42.11,15.989C41.71,15.695 41.346,15.317 41.017,14.856L40.708,14.856L40.708,17.072C40.708,17.145 40.682,17.208 40.63,17.259C40.579,17.311 40.516,17.337 40.443,17.337ZM38.448,12.595L38.448,13.177L40.178,13.177L40.178,12.595L38.448,12.595ZM40.708,12.595L40.708,13.177L42.438,13.177L42.438,12.595L40.708,12.595ZM38.448,13.707L38.448,14.326L40.178,14.326L40.178,13.707L38.448,13.707ZM40.708,13.707L40.708,14.326L42.438,14.326L42.438,13.707L40.708,13.707Z" style="fill-rule:nonzero;"/>
        <path d="M47.805,10.357C47.879,10.357 47.941,10.383 47.993,10.435C48.044,10.486 48.07,10.549 48.07,10.622L48.07,11.042L50.75,11.042C50.823,11.042 50.886,11.069 50.937,11.123C50.989,11.177 51.015,11.238 51.015,11.307C51.015,11.381 50.989,11.443 50.937,11.495C50.886,11.546 50.823,11.572 50.75,11.572L44.889,11.572C44.816,11.572 44.753,11.546 44.702,11.495C44.65,11.443 44.624,11.381 44.624,11.307C44.624,11.238 44.65,11.177 44.702,11.123C44.753,11.069 44.816,11.042 44.889,11.042L47.54,11.042L47.54,10.622C47.54,10.549 47.566,10.486 47.617,10.435C47.669,10.383 47.731,10.357 47.805,10.357ZM48.07,14.649L48.07,17.086C48.07,17.16 48.044,17.223 47.993,17.274C47.941,17.326 47.879,17.351 47.805,17.351C47.731,17.351 47.669,17.326 47.617,17.274C47.566,17.223 47.54,17.16 47.54,17.086L47.54,14.649L45.964,14.649C45.827,14.649 45.709,14.599 45.611,14.499C45.513,14.398 45.464,14.279 45.464,14.141L45.464,12.934C45.464,12.797 45.513,12.678 45.611,12.577C45.709,12.476 45.827,12.426 45.964,12.426L49.675,12.426C49.812,12.426 49.93,12.476 50.028,12.577C50.126,12.678 50.176,12.797 50.176,12.934L50.176,14.141C50.176,14.279 50.126,14.398 50.028,14.499C49.93,14.599 49.812,14.649 49.675,14.649L48.07,14.649ZM49.645,12.956L45.994,12.956L45.994,14.119L49.645,14.119L49.645,12.956ZM46.355,15.275C46.438,15.329 46.48,15.403 46.48,15.496C46.48,15.54 46.467,15.587 46.443,15.636C46.266,15.935 46.048,16.198 45.788,16.424C45.528,16.65 45.238,16.834 44.919,16.976C44.885,16.991 44.848,16.998 44.808,16.998C44.759,16.998 44.712,16.985 44.665,16.958C44.618,16.931 44.585,16.892 44.566,16.843C44.551,16.809 44.543,16.775 44.543,16.74C44.543,16.686 44.558,16.637 44.588,16.593C44.617,16.549 44.656,16.515 44.705,16.49C45.25,16.25 45.677,15.874 45.986,15.364C46.04,15.28 46.116,15.238 46.215,15.238C46.259,15.238 46.305,15.251 46.355,15.275ZM50.904,16.49C50.953,16.51 50.993,16.543 51.022,16.589C51.052,16.636 51.066,16.686 51.066,16.74C51.066,16.775 51.059,16.809 51.044,16.843C51.025,16.892 50.991,16.931 50.945,16.958C50.898,16.985 50.85,16.998 50.801,16.998C50.767,16.998 50.73,16.991 50.691,16.976C50.372,16.834 50.082,16.65 49.822,16.424C49.562,16.198 49.344,15.935 49.167,15.636C49.142,15.587 49.13,15.54 49.13,15.496C49.13,15.403 49.172,15.329 49.255,15.275C49.304,15.251 49.351,15.238 49.395,15.238C49.493,15.238 49.569,15.28 49.623,15.364C49.933,15.874 50.36,16.25 50.904,16.49Z" style="fill-rule:nonzero;"/>
        <path d="M51.987,16.785C51.913,16.785 51.85,16.759 51.799,16.707C51.747,16.656 51.722,16.593 51.722,16.519C51.722,16.465 51.736,16.416 51.766,16.372C52.011,15.994 52.187,15.542 52.292,15.014C52.398,14.486 52.45,13.8 52.45,12.956L52.45,11.675C52.45,11.518 52.506,11.386 52.616,11.278C52.727,11.17 52.858,11.116 53.01,11.116L55.108,11.116L55.108,10.637C55.108,10.563 55.134,10.501 55.185,10.449C55.237,10.398 55.3,10.372 55.373,10.372C55.447,10.372 55.509,10.398 55.561,10.449C55.612,10.501 55.638,10.563 55.638,10.637L55.638,11.116L58.053,11.116C58.127,11.116 58.189,11.141 58.241,11.193C58.292,11.244 58.318,11.307 58.318,11.381C58.318,11.454 58.292,11.517 58.241,11.568C58.189,11.62 58.127,11.646 58.053,11.646L53.01,11.646C52.99,11.646 52.981,11.656 52.981,11.675L52.981,12.956C52.981,13.845 52.922,14.577 52.804,15.154C52.686,15.73 52.492,16.227 52.222,16.645C52.163,16.738 52.085,16.785 51.987,16.785ZM54.136,16.888C53.999,16.888 53.881,16.839 53.783,16.74C53.685,16.642 53.636,16.524 53.636,16.387C53.636,16.328 53.646,16.272 53.665,16.218L55.035,12.529C55.054,12.475 55.086,12.432 55.13,12.4C55.174,12.368 55.226,12.352 55.285,12.352C55.358,12.352 55.421,12.378 55.473,12.43C55.524,12.481 55.55,12.544 55.55,12.618C55.55,12.647 55.543,12.681 55.528,12.721L54.181,16.358L57.663,16.358L56.662,14.112C56.647,14.073 56.64,14.036 56.64,14.002C56.64,13.928 56.665,13.865 56.717,13.814C56.768,13.762 56.831,13.737 56.905,13.737C56.959,13.737 57.008,13.751 57.052,13.781C57.096,13.81 57.128,13.849 57.148,13.899L58.163,16.173C58.198,16.247 58.215,16.318 58.215,16.387C58.215,16.524 58.167,16.642 58.071,16.74C57.976,16.839 57.857,16.888 57.714,16.888L54.136,16.888Z" style="fill-rule:nonzero;"/>
        <path d="M65.857,17.256C65.803,17.32 65.737,17.351 65.658,17.351C65.589,17.351 65.533,17.329 65.489,17.285C65.057,16.922 64.694,16.458 64.399,15.894C63.982,16.448 63.45,16.89 62.802,17.219C62.767,17.234 62.728,17.241 62.684,17.241C62.635,17.241 62.588,17.227 62.544,17.2C62.5,17.173 62.468,17.138 62.448,17.094C62.429,17.059 62.419,17.02 62.419,16.976C62.419,16.927 62.432,16.88 62.459,16.836C62.486,16.792 62.522,16.76 62.566,16.74C63.219,16.416 63.742,15.95 64.134,15.342C64.066,15.165 64.016,15.03 63.987,14.937C63.683,14.053 63.518,13.018 63.494,11.83L61.594,11.83C61.521,11.83 61.458,11.804 61.407,11.752C61.355,11.701 61.329,11.638 61.329,11.565C61.329,11.491 61.355,11.429 61.407,11.377C61.458,11.325 61.521,11.3 61.594,11.3L63.494,11.3L63.494,10.637C63.494,10.563 63.519,10.501 63.571,10.449C63.623,10.398 63.685,10.372 63.759,10.372C63.827,10.372 63.889,10.398 63.943,10.449C63.997,10.501 64.024,10.563 64.024,10.637L64.024,11.3L64.775,11.3C64.686,11.162 64.62,11.071 64.576,11.027C64.527,10.978 64.502,10.917 64.502,10.843C64.502,10.77 64.527,10.708 64.576,10.659C64.625,10.605 64.689,10.578 64.767,10.578C64.841,10.578 64.902,10.603 64.951,10.652C65.001,10.701 65.067,10.786 65.15,10.906C65.234,11.026 65.29,11.118 65.32,11.182C65.339,11.216 65.349,11.256 65.349,11.3L65.629,11.3C65.702,11.3 65.765,11.325 65.816,11.377C65.868,11.429 65.894,11.491 65.894,11.565C65.894,11.638 65.868,11.701 65.816,11.752C65.765,11.804 65.702,11.83 65.629,11.83L64.024,11.83C64.048,12.934 64.198,13.899 64.473,14.723C64.694,14.222 64.839,13.643 64.907,12.986C64.912,12.922 64.939,12.867 64.988,12.82C65.037,12.773 65.096,12.75 65.165,12.75C65.243,12.75 65.31,12.778 65.364,12.835C65.418,12.891 65.44,12.959 65.43,13.037C65.347,13.926 65.113,14.706 64.731,15.378C65.02,15.997 65.388,16.497 65.835,16.88C65.894,16.934 65.923,17 65.923,17.079C65.923,17.148 65.901,17.207 65.857,17.256ZM59.253,15.886C59.459,15.832 59.673,15.764 59.894,15.68L59.894,12.676L59.386,12.676C59.312,12.676 59.249,12.651 59.198,12.599C59.146,12.548 59.121,12.485 59.121,12.411C59.121,12.338 59.146,12.275 59.198,12.224C59.249,12.172 59.312,12.146 59.386,12.146L59.894,12.146L59.894,10.748C59.894,10.674 59.919,10.611 59.971,10.56C60.022,10.508 60.085,10.482 60.159,10.482C60.232,10.482 60.295,10.508 60.346,10.56C60.398,10.611 60.424,10.674 60.424,10.748L60.424,12.146L60.902,12.146C60.976,12.146 61.038,12.172 61.09,12.224C61.141,12.275 61.167,12.338 61.167,12.411C61.167,12.485 61.141,12.548 61.09,12.599C61.038,12.651 60.976,12.676 60.902,12.676L60.424,12.676L60.424,15.445C60.595,15.366 60.748,15.28 60.88,15.187C60.924,15.157 60.973,15.143 61.027,15.143C61.121,15.143 61.194,15.182 61.248,15.261C61.278,15.305 61.292,15.354 61.292,15.408C61.292,15.506 61.253,15.58 61.175,15.629C60.949,15.781 60.669,15.928 60.335,16.07C60.002,16.213 59.683,16.323 59.378,16.402C59.364,16.407 59.344,16.409 59.319,16.409C59.246,16.409 59.183,16.383 59.132,16.332C59.08,16.28 59.054,16.215 59.054,16.137C59.054,16.078 59.071,16.025 59.106,15.978C59.14,15.932 59.189,15.901 59.253,15.886ZM61.867,14.966C61.759,14.966 61.665,14.927 61.587,14.848C61.508,14.77 61.469,14.676 61.469,14.569L61.469,13.096C61.469,12.988 61.508,12.895 61.587,12.816C61.665,12.738 61.759,12.699 61.867,12.699L62.905,12.699C63.013,12.699 63.106,12.738 63.184,12.816C63.263,12.895 63.302,12.988 63.302,13.096L63.302,14.569C63.302,14.676 63.264,14.77 63.188,14.848C63.112,14.927 63.018,14.966 62.905,14.966L61.867,14.966ZM62.772,13.229L61.999,13.229L61.999,14.436L62.772,14.436L62.772,13.229ZM60.924,16.328C60.924,16.259 60.945,16.2 60.987,16.151C61.029,16.102 61.081,16.073 61.145,16.063C61.459,16.009 61.791,15.913 62.139,15.776C62.488,15.638 62.772,15.494 62.993,15.342C63.037,15.312 63.089,15.297 63.148,15.297C63.241,15.297 63.312,15.334 63.361,15.408C63.396,15.447 63.413,15.499 63.413,15.562C63.413,15.651 63.373,15.722 63.295,15.776C63.04,15.953 62.721,16.116 62.338,16.265C61.955,16.415 61.587,16.522 61.234,16.586L61.189,16.586C61.116,16.586 61.053,16.561 61.002,16.512C60.95,16.463 60.924,16.402 60.924,16.328Z" style="fill-rule:nonzero;"/>
        <path d="M66.917,13.729C66.844,13.729 66.781,13.703 66.729,13.652C66.678,13.6 66.652,13.538 66.652,13.464L66.652,12.006C66.652,11.849 66.707,11.717 66.818,11.609C66.928,11.501 67.059,11.447 67.212,11.447L69.626,11.447L69.626,11.138L67.558,11.138C67.484,11.138 67.421,11.112 67.37,11.06C67.318,11.009 67.293,10.946 67.293,10.873C67.293,10.799 67.318,10.736 67.37,10.685C67.421,10.633 67.484,10.608 67.558,10.608L72.225,10.608C72.299,10.608 72.361,10.633 72.413,10.685C72.465,10.736 72.49,10.799 72.49,10.873C72.49,10.946 72.465,11.009 72.413,11.06C72.361,11.112 72.299,11.138 72.225,11.138L70.156,11.138L70.156,11.447L72.571,11.447C72.728,11.447 72.861,11.501 72.969,11.609C73.077,11.717 73.131,11.849 73.131,12.006L73.131,13.464C73.131,13.538 73.105,13.6 73.054,13.652C73.002,13.703 72.939,13.729 72.866,13.729C72.792,13.729 72.73,13.703 72.678,13.652C72.627,13.6 72.601,13.538 72.601,13.464L72.601,12.006C72.601,11.987 72.591,11.977 72.571,11.977L70.156,11.977L70.156,13.464C70.156,13.538 70.131,13.6 70.079,13.652C70.028,13.703 69.965,13.729 69.891,13.729C69.818,13.729 69.755,13.703 69.704,13.652C69.652,13.6 69.626,13.538 69.626,13.464L69.626,11.977L67.212,11.977C67.192,11.977 67.182,11.987 67.182,12.006L67.182,13.464C67.182,13.538 67.156,13.6 67.105,13.652C67.053,13.703 66.991,13.729 66.917,13.729ZM67.852,12.802C67.779,12.802 67.716,12.776 67.664,12.724C67.613,12.673 67.587,12.61 67.587,12.537C67.587,12.463 67.613,12.4 67.664,12.349C67.716,12.297 67.779,12.271 67.852,12.271L68.956,12.271C69.03,12.271 69.093,12.297 69.144,12.349C69.196,12.4 69.221,12.463 69.221,12.537C69.221,12.61 69.196,12.673 69.144,12.724C69.093,12.776 69.03,12.802 68.956,12.802L67.852,12.802ZM70.826,12.802C70.753,12.802 70.69,12.776 70.639,12.724C70.587,12.673 70.561,12.61 70.561,12.537C70.561,12.463 70.587,12.4 70.639,12.349C70.69,12.297 70.753,12.271 70.826,12.271L71.931,12.271C72.004,12.271 72.067,12.297 72.119,12.349C72.17,12.4 72.196,12.463 72.196,12.537C72.196,12.61 72.17,12.673 72.119,12.724C72.067,12.776 72.004,12.802 71.931,12.802L70.826,12.802ZM67.852,13.619C67.779,13.619 67.716,13.593 67.664,13.541C67.613,13.49 67.587,13.427 67.587,13.354C67.587,13.28 67.613,13.218 67.664,13.166C67.716,13.114 67.779,13.089 67.852,13.089L68.956,13.089C69.03,13.089 69.093,13.114 69.144,13.166C69.196,13.218 69.221,13.28 69.221,13.354C69.221,13.427 69.196,13.49 69.144,13.541C69.093,13.593 69.03,13.619 68.956,13.619L67.852,13.619ZM70.826,13.619C70.753,13.619 70.69,13.593 70.639,13.541C70.587,13.49 70.561,13.427 70.561,13.354C70.561,13.28 70.587,13.218 70.639,13.166C70.69,13.114 70.753,13.089 70.826,13.089L71.931,13.089C72.004,13.089 72.067,13.114 72.119,13.166C72.17,13.218 72.196,13.28 72.196,13.354C72.196,13.427 72.17,13.49 72.119,13.541C72.067,13.593 72.004,13.619 71.931,13.619L70.826,13.619ZM70.422,17.167C70.186,17.167 69.985,17.084 69.818,16.917C69.651,16.75 69.568,16.549 69.568,16.313L69.568,16.277L67.602,16.277C67.479,16.277 67.375,16.234 67.289,16.148C67.203,16.062 67.16,15.958 67.16,15.835L67.16,14.355C67.16,14.232 67.203,14.128 67.289,14.042C67.375,13.956 67.479,13.913 67.602,13.913L72.071,13.913C72.193,13.913 72.298,13.956 72.384,14.042C72.469,14.128 72.512,14.232 72.512,14.355L72.512,15.835C72.512,15.958 72.469,16.062 72.384,16.148C72.298,16.234 72.193,16.277 72.071,16.277L70.098,16.277L70.098,16.313C70.098,16.407 70.129,16.484 70.193,16.545C70.257,16.607 70.333,16.637 70.422,16.637L72.446,16.637C72.525,16.637 72.586,16.603 72.63,16.534C72.689,16.426 72.731,16.294 72.755,16.137C72.765,16.073 72.796,16.02 72.847,15.978C72.899,15.937 72.957,15.916 73.02,15.916C73.094,15.916 73.157,15.942 73.208,15.993C73.26,16.045 73.285,16.107 73.285,16.181C73.285,16.2 73.283,16.215 73.278,16.225C73.239,16.456 73.175,16.647 73.087,16.799C73.018,16.912 72.927,17.002 72.814,17.068C72.701,17.134 72.579,17.167 72.446,17.167L70.422,17.167ZM67.69,14.443L67.69,14.819L69.568,14.819L69.568,14.443L67.69,14.443ZM70.098,14.443L70.098,14.819L71.982,14.819L71.982,14.443L70.098,14.443ZM67.69,15.349L67.69,15.746L69.568,15.746L69.568,15.349L67.69,15.349ZM70.098,15.349L70.098,15.746L71.982,15.746L71.982,15.349L70.098,15.349Z" style="fill-rule:nonzero;"/>
        <path d="M74.066,11.808C73.992,11.808 73.93,11.782 73.878,11.73C73.827,11.679 73.801,11.616 73.801,11.543C73.801,11.469 73.827,11.406 73.878,11.355C73.93,11.303 73.992,11.278 74.066,11.278L75.082,11.278L75.082,10.644C75.082,10.576 75.108,10.514 75.159,10.46C75.211,10.406 75.273,10.379 75.347,10.379C75.42,10.379 75.483,10.406 75.535,10.46C75.586,10.514 75.612,10.576 75.612,10.644L75.612,11.278L76.62,11.278C76.694,11.278 76.757,11.303 76.808,11.355C76.86,11.406 76.886,11.469 76.886,11.543C76.886,11.616 76.86,11.679 76.808,11.73C76.757,11.782 76.694,11.808 76.62,11.808L74.066,11.808ZM77.813,17.094C77.69,17.094 77.586,17.051 77.5,16.965C77.414,16.879 77.371,16.775 77.371,16.652L77.371,15.062C77.371,14.939 77.414,14.835 77.5,14.749C77.586,14.663 77.69,14.62 77.813,14.62L78.601,14.62L78.601,13.361L77.276,13.361C77.202,13.361 77.14,13.335 77.088,13.284C77.036,13.232 77.011,13.17 77.011,13.096C77.011,13.022 77.036,12.96 77.088,12.908C77.14,12.857 77.202,12.831 77.276,12.831L78.601,12.831L78.601,11.668C78.272,11.776 77.909,11.852 77.511,11.896L77.482,11.896C77.408,11.896 77.346,11.87 77.294,11.819C77.243,11.767 77.217,11.705 77.217,11.631C77.217,11.562 77.24,11.503 77.287,11.454C77.333,11.405 77.391,11.376 77.46,11.366C77.897,11.317 78.306,11.219 78.689,11.071C79.072,10.924 79.443,10.723 79.801,10.468C79.855,10.433 79.906,10.416 79.956,10.416C80.029,10.416 80.092,10.442 80.143,10.494C80.195,10.545 80.221,10.608 80.221,10.681C80.221,10.77 80.184,10.843 80.11,10.902C79.772,11.138 79.445,11.324 79.131,11.462L79.131,12.831L80.456,12.831C80.53,12.831 80.592,12.857 80.644,12.908C80.695,12.96 80.721,13.022 80.721,13.096C80.721,13.17 80.695,13.232 80.644,13.284C80.592,13.335 80.53,13.361 80.456,13.361L79.131,13.361L79.131,14.62L79.911,14.62C80.034,14.62 80.138,14.663 80.224,14.749C80.31,14.835 80.353,14.939 80.353,15.062L80.353,16.652C80.353,16.775 80.31,16.879 80.224,16.965C80.138,17.051 80.034,17.094 79.911,17.094L77.813,17.094ZM74.427,13.059C74.353,13.059 74.29,13.033 74.239,12.982C74.187,12.93 74.162,12.868 74.162,12.794C74.162,12.721 74.187,12.658 74.239,12.606C74.29,12.555 74.353,12.529 74.427,12.529L76.26,12.529C76.333,12.529 76.396,12.555 76.447,12.606C76.499,12.658 76.525,12.721 76.525,12.794C76.525,12.868 76.499,12.93 76.447,12.982C76.396,13.033 76.333,13.059 76.26,13.059L74.427,13.059ZM74.427,14.296C74.353,14.296 74.29,14.27 74.239,14.219C74.187,14.167 74.162,14.105 74.162,14.031C74.162,13.957 74.187,13.895 74.239,13.843C74.29,13.792 74.353,13.766 74.427,13.766L76.26,13.766C76.333,13.766 76.396,13.792 76.447,13.843C76.499,13.895 76.525,13.957 76.525,14.031C76.525,14.105 76.499,14.167 76.447,14.219C76.396,14.27 76.333,14.296 76.26,14.296L74.427,14.296ZM74.552,17.05C74.429,17.05 74.325,17.007 74.239,16.921C74.153,16.835 74.11,16.731 74.11,16.608L74.11,15.452C74.11,15.329 74.153,15.225 74.239,15.139C74.325,15.053 74.429,15.01 74.552,15.01L76.142,15.01C76.265,15.01 76.369,15.053 76.455,15.139C76.541,15.225 76.584,15.329 76.584,15.452L76.584,16.608C76.584,16.731 76.541,16.835 76.455,16.921C76.369,17.007 76.265,17.05 76.142,17.05L74.552,17.05ZM77.902,15.15L77.902,16.564L79.823,16.564L79.823,15.15L77.902,15.15ZM74.64,15.54L74.64,16.519L76.054,16.519L76.054,15.54L74.64,15.54Z" style="fill-rule:nonzero;"/>
        <path d="M81.332,13.847C81.313,13.803 81.303,13.749 81.303,13.685C81.303,13.582 81.332,13.499 81.391,13.435L82.208,12.5L81.612,11.948C81.519,11.859 81.472,11.749 81.472,11.616C81.472,11.503 81.509,11.408 81.583,11.329L82.334,10.475C82.392,10.416 82.459,10.387 82.532,10.387C82.596,10.387 82.655,10.409 82.709,10.453C82.768,10.502 82.797,10.568 82.797,10.652C82.797,10.721 82.775,10.777 82.731,10.821L82.032,11.616L82.554,12.102L82.981,11.616C83.035,11.552 83.104,11.521 83.188,11.521C83.251,11.521 83.308,11.543 83.357,11.587C83.416,11.636 83.445,11.702 83.445,11.786C83.445,11.849 83.423,11.908 83.379,11.962L82.002,13.538L83.246,13.538L83.062,13.273C83.028,13.233 83.011,13.182 83.011,13.118C83.011,13.025 83.048,12.954 83.121,12.905C83.165,12.875 83.217,12.86 83.276,12.86C83.369,12.86 83.44,12.897 83.489,12.971L83.843,13.464C83.892,13.538 83.916,13.614 83.916,13.692C83.916,13.751 83.902,13.808 83.872,13.862C83.838,13.926 83.79,13.976 83.729,14.013C83.667,14.049 83.602,14.068 83.534,14.068L82.989,14.068L82.989,17.072C82.989,17.145 82.963,17.208 82.911,17.259C82.86,17.311 82.797,17.337 82.724,17.337C82.65,17.337 82.588,17.311 82.536,17.259C82.484,17.208 82.459,17.145 82.459,17.072L82.459,14.068L81.686,14.068C81.607,14.068 81.537,14.048 81.476,14.009C81.415,13.97 81.367,13.916 81.332,13.847ZM87.833,16.976C87.833,17.05 87.807,17.112 87.756,17.164C87.704,17.215 87.642,17.241 87.568,17.241C87.494,17.241 87.432,17.215 87.38,17.164C87.329,17.112 87.303,17.05 87.303,16.976L87.303,14.539C87.254,14.622 87.18,14.664 87.082,14.664L85.728,14.664L85.728,15.754C85.728,15.793 85.742,15.827 85.772,15.857C85.801,15.886 85.836,15.901 85.875,15.901L86.692,15.901C86.766,15.901 86.828,15.927 86.88,15.978C86.931,16.03 86.957,16.092 86.957,16.166C86.957,16.24 86.931,16.302 86.88,16.354C86.828,16.405 86.766,16.431 86.692,16.431L85.875,16.431C85.688,16.431 85.529,16.365 85.396,16.232C85.264,16.1 85.197,15.94 85.197,15.754L85.197,14.664L84.822,14.664L84.77,14.657L84.77,16.976C84.77,17.05 84.743,17.112 84.689,17.164C84.635,17.215 84.574,17.241 84.505,17.241C84.432,17.241 84.369,17.215 84.318,17.164C84.266,17.112 84.24,17.05 84.24,16.976L84.24,11.094C84.24,10.956 84.289,10.838 84.388,10.74C84.486,10.642 84.604,10.593 84.741,10.593L87.332,10.593C87.47,10.593 87.588,10.642 87.686,10.74C87.784,10.838 87.833,10.956 87.833,11.094L87.833,16.976ZM87.303,11.123L84.77,11.123L84.77,12.522C84.82,12.443 84.893,12.404 84.991,12.404L85.227,12.404C85.139,12.134 85.07,11.862 85.021,11.587C85.011,11.508 85.032,11.438 85.083,11.377C85.135,11.316 85.202,11.285 85.286,11.285C85.355,11.285 85.413,11.306 85.462,11.348C85.512,11.389 85.541,11.442 85.551,11.506C85.585,11.771 85.664,12.07 85.786,12.404L86.287,12.404C86.41,12.07 86.488,11.771 86.523,11.506C86.532,11.442 86.562,11.389 86.611,11.348C86.66,11.306 86.719,11.285 86.788,11.285C86.871,11.285 86.937,11.314 86.986,11.373C87.036,11.432 87.055,11.503 87.045,11.587C87.006,11.842 86.94,12.114 86.847,12.404L87.082,12.404C87.18,12.404 87.254,12.443 87.303,12.522L87.303,11.123ZM87.082,14.134C87.18,14.134 87.254,14.173 87.303,14.252L87.303,12.809C87.254,12.892 87.18,12.934 87.082,12.934L84.991,12.934C84.893,12.934 84.82,12.892 84.77,12.809L84.77,14.141C84.78,14.137 84.797,14.134 84.822,14.134L85.772,14.134L85.772,13.457C85.772,13.383 85.797,13.321 85.849,13.269C85.901,13.218 85.963,13.192 86.037,13.192C86.11,13.192 86.173,13.218 86.224,13.269C86.276,13.321 86.302,13.383 86.302,13.457L86.302,14.134L87.082,14.134ZM81.281,16.431C81.237,16.412 81.201,16.38 81.174,16.335C81.147,16.291 81.134,16.245 81.134,16.196C81.134,16.161 81.146,16.119 81.17,16.07C81.268,15.884 81.345,15.68 81.399,15.459C81.453,15.238 81.482,15.015 81.487,14.789C81.487,14.716 81.514,14.653 81.568,14.602C81.622,14.55 81.686,14.524 81.759,14.524C81.833,14.529 81.894,14.557 81.943,14.609C81.992,14.661 82.017,14.723 82.017,14.797C82.007,15.067 81.97,15.333 81.907,15.596C81.843,15.858 81.752,16.1 81.634,16.321C81.615,16.365 81.583,16.399 81.538,16.424C81.494,16.448 81.448,16.461 81.399,16.461C81.354,16.461 81.315,16.451 81.281,16.431ZM83.438,14.576C83.502,14.576 83.558,14.595 83.607,14.635C83.656,14.674 83.686,14.726 83.696,14.789C83.754,15.113 83.858,15.41 84.005,15.68C84.024,15.715 84.034,15.756 84.034,15.805C84.034,15.854 84.021,15.901 83.994,15.945C83.967,15.989 83.931,16.021 83.887,16.041C83.838,16.061 83.799,16.07 83.769,16.07C83.72,16.07 83.673,16.057 83.629,16.03C83.585,16.003 83.553,15.967 83.534,15.923C83.372,15.619 83.251,15.275 83.173,14.892C83.158,14.809 83.177,14.735 83.228,14.672C83.28,14.608 83.35,14.576 83.438,14.576Z" style="fill-rule:nonzero;"/>
    </g>
    <g transform="matrix(4.75268,0,0,4.75268,-87.1739,-74.8063)">
        <path d="M32.562,25.309C32.543,25.309 32.528,25.302 32.515,25.289C32.502,25.276 32.495,25.26 32.495,25.242L32.495,24.004L32.094,24.004C32.075,24.004 32.059,23.997 32.046,23.984C32.033,23.971 32.027,23.956 32.027,23.937C32.027,23.918 32.033,23.903 32.046,23.89C32.059,23.877 32.075,23.87 32.094,23.87L33.03,23.87C33.049,23.87 33.065,23.877 33.078,23.89C33.091,23.903 33.097,23.918 33.097,23.937C33.097,23.956 33.091,23.971 33.078,23.984C33.065,23.997 33.049,24.004 33.03,24.004L32.629,24.004L32.629,25.242C32.629,25.26 32.622,25.276 32.609,25.289C32.596,25.302 32.581,25.309 32.562,25.309Z" style="fill-rule:nonzero;"/>
        <path d="M33.566,25.31C33.48,25.31 33.405,25.288 33.341,25.243C33.276,25.197 33.227,25.133 33.192,25.05C33.157,24.967 33.14,24.871 33.14,24.76C33.14,24.65 33.157,24.553 33.192,24.47C33.227,24.387 33.276,24.323 33.341,24.278C33.405,24.233 33.48,24.21 33.566,24.21C33.651,24.21 33.726,24.233 33.79,24.278C33.855,24.323 33.904,24.387 33.939,24.47C33.974,24.553 33.991,24.65 33.991,24.76C33.991,24.871 33.974,24.967 33.939,25.05C33.904,25.133 33.855,25.197 33.79,25.243C33.726,25.288 33.651,25.31 33.566,25.31ZM33.566,25.177C33.656,25.177 33.727,25.14 33.779,25.066C33.831,24.992 33.857,24.89 33.857,24.76C33.857,24.63 33.831,24.528 33.779,24.455C33.727,24.381 33.656,24.344 33.566,24.344C33.475,24.344 33.404,24.381 33.352,24.455C33.3,24.528 33.274,24.63 33.274,24.76C33.274,24.89 33.3,24.992 33.352,25.066C33.404,25.14 33.475,25.177 33.566,25.177Z" style="fill-rule:nonzero;"/>
        <path d="M34.326,25.309C34.307,25.309 34.291,25.302 34.278,25.289C34.265,25.276 34.259,25.26 34.259,25.242L34.259,23.922C34.259,23.904 34.265,23.888 34.278,23.875C34.291,23.862 34.307,23.855 34.326,23.855C34.343,23.855 34.359,23.862 34.372,23.875C34.386,23.888 34.393,23.904 34.393,23.922L34.393,24.76L34.909,24.232C34.92,24.219 34.937,24.212 34.958,24.212C34.976,24.212 34.992,24.219 35.005,24.232C35.018,24.245 35.024,24.26 35.024,24.279C35.024,24.299 35.018,24.314 35.004,24.325L34.645,24.692L35.034,25.201C35.044,25.213 35.049,25.227 35.049,25.242C35.049,25.26 35.042,25.276 35.029,25.289C35.016,25.302 35,25.309 34.982,25.309C34.961,25.309 34.943,25.3 34.928,25.282L34.551,24.788L34.393,24.952L34.393,25.242C34.393,25.26 34.386,25.276 34.372,25.289C34.359,25.302 34.343,25.309 34.326,25.309Z" style="fill-rule:nonzero;"/>
        <path d="M35.394,25.671C35.357,25.671 35.321,25.663 35.285,25.647C35.272,25.642 35.263,25.634 35.256,25.623C35.249,25.611 35.246,25.599 35.246,25.585C35.246,25.567 35.252,25.551 35.265,25.538C35.278,25.525 35.294,25.519 35.313,25.519C35.324,25.519 35.334,25.52 35.342,25.524C35.358,25.533 35.376,25.537 35.394,25.537C35.419,25.537 35.442,25.53 35.463,25.515C35.484,25.5 35.5,25.479 35.51,25.453L35.599,25.227L35.227,24.305C35.223,24.298 35.221,24.289 35.221,24.279C35.221,24.26 35.228,24.245 35.241,24.232C35.254,24.219 35.27,24.212 35.288,24.212C35.302,24.212 35.314,24.216 35.326,24.224C35.337,24.232 35.345,24.242 35.35,24.255L35.669,25.046L35.98,24.257C35.986,24.243 35.995,24.232 36.006,24.224C36.017,24.216 36.029,24.212 36.043,24.212C36.061,24.212 36.077,24.219 36.09,24.232C36.103,24.245 36.11,24.26 36.11,24.279C36.11,24.289 36.108,24.298 36.104,24.305L35.634,25.504C35.613,25.554 35.581,25.595 35.538,25.625C35.496,25.656 35.448,25.671 35.394,25.671Z" style="fill-rule:nonzero;"/>
        <path d="M36.725,25.31C36.639,25.31 36.564,25.288 36.5,25.243C36.436,25.197 36.386,25.133 36.351,25.05C36.317,24.967 36.299,24.871 36.299,24.76C36.299,24.65 36.317,24.553 36.351,24.47C36.386,24.387 36.436,24.323 36.5,24.278C36.564,24.233 36.639,24.21 36.725,24.21C36.81,24.21 36.885,24.233 36.95,24.278C37.014,24.323 37.064,24.387 37.098,24.47C37.133,24.553 37.151,24.65 37.151,24.76C37.151,24.871 37.133,24.967 37.098,25.05C37.064,25.133 37.014,25.197 36.95,25.243C36.885,25.288 36.81,25.31 36.725,25.31ZM36.725,25.177C36.815,25.177 36.887,25.14 36.939,25.066C36.991,24.992 37.017,24.89 37.017,24.76C37.017,24.63 36.991,24.528 36.939,24.455C36.887,24.381 36.815,24.344 36.725,24.344C36.634,24.344 36.563,24.381 36.511,24.455C36.459,24.528 36.433,24.63 36.433,24.76C36.433,24.89 36.459,24.992 36.511,25.066C36.563,25.14 36.634,25.177 36.725,25.177Z" style="fill-rule:nonzero;"/>
        <path d="M38.466,25.305C38.45,25.305 38.436,25.3 38.424,25.29C38.411,25.28 38.404,25.268 38.401,25.253L38.091,23.95C38.088,23.943 38.087,23.937 38.087,23.933C38.087,23.915 38.094,23.899 38.108,23.886C38.121,23.873 38.137,23.866 38.154,23.866C38.17,23.866 38.184,23.871 38.197,23.881C38.209,23.891 38.217,23.904 38.221,23.918L38.505,25.11L38.778,23.946C38.781,23.93 38.788,23.917 38.801,23.907C38.813,23.897 38.827,23.892 38.844,23.892C38.86,23.892 38.874,23.897 38.886,23.907C38.899,23.917 38.906,23.93 38.909,23.946L39.182,25.11L39.466,23.918C39.47,23.904 39.478,23.891 39.49,23.881C39.503,23.871 39.517,23.866 39.533,23.866C39.55,23.866 39.566,23.873 39.579,23.886C39.593,23.899 39.6,23.915 39.6,23.933C39.6,23.937 39.599,23.943 39.596,23.95L39.286,25.253C39.283,25.268 39.276,25.28 39.264,25.29C39.251,25.3 39.237,25.305 39.221,25.305L39.145,25.305C39.128,25.305 39.114,25.3 39.102,25.29C39.089,25.28 39.081,25.268 39.078,25.253L38.844,24.251L38.609,25.253C38.606,25.268 38.598,25.28 38.585,25.29C38.573,25.3 38.559,25.305 38.542,25.305L38.466,25.305Z" style="fill-rule:nonzero;"/>
        <path d="M39.959,24.041C39.94,24.041 39.924,24.035 39.911,24.022C39.898,24.009 39.892,23.993 39.892,23.974L39.892,23.907C39.892,23.889 39.898,23.873 39.911,23.86C39.924,23.847 39.94,23.84 39.959,23.84C39.977,23.84 39.993,23.847 40.006,23.86C40.019,23.873 40.025,23.889 40.025,23.907L40.025,23.974C40.025,23.993 40.019,24.009 40.006,24.022C39.993,24.035 39.977,24.041 39.959,24.041ZM39.959,25.309C39.94,25.309 39.924,25.302 39.911,25.289C39.898,25.276 39.892,25.26 39.892,25.242L39.892,24.279C39.892,24.26 39.898,24.245 39.911,24.232C39.924,24.219 39.94,24.212 39.959,24.212C39.977,24.212 39.993,24.219 40.006,24.232C40.019,24.245 40.025,24.26 40.025,24.279L40.025,25.242C40.025,25.26 40.019,25.276 40.006,25.289C39.993,25.302 39.977,25.309 39.959,25.309Z" style="fill-rule:nonzero;"/>
        <path d="M40.765,25.31C40.681,25.31 40.606,25.287 40.541,25.24C40.476,25.193 40.425,25.128 40.389,25.045C40.352,24.962 40.334,24.867 40.334,24.76C40.334,24.654 40.352,24.559 40.389,24.476C40.425,24.393 40.476,24.328 40.541,24.281C40.606,24.234 40.681,24.21 40.765,24.21C40.849,24.21 40.926,24.242 40.996,24.305L40.996,23.922C40.996,23.904 41.002,23.888 41.015,23.875C41.028,23.862 41.044,23.855 41.062,23.855C41.081,23.855 41.097,23.862 41.11,23.875C41.123,23.888 41.129,23.904 41.129,23.922L41.129,25.24C41.129,25.258 41.123,25.274 41.11,25.287C41.097,25.3 41.081,25.307 41.062,25.307C41.044,25.307 41.028,25.3 41.015,25.287C41.002,25.274 40.996,25.258 40.996,25.24L40.996,25.216C40.926,25.279 40.849,25.31 40.765,25.31ZM40.765,25.177C40.811,25.177 40.854,25.16 40.895,25.127C40.936,25.094 40.97,25.048 40.996,24.989L40.996,24.532C40.97,24.472 40.936,24.426 40.895,24.393C40.854,24.36 40.811,24.344 40.765,24.344C40.707,24.344 40.655,24.361 40.611,24.396C40.566,24.431 40.531,24.48 40.506,24.543C40.48,24.606 40.468,24.679 40.468,24.76C40.468,24.842 40.48,24.915 40.506,24.978C40.531,25.041 40.566,25.09 40.611,25.125C40.655,25.159 40.707,25.177 40.765,25.177Z" style="fill-rule:nonzero;"/>
        <path d="M41.819,25.31C41.735,25.31 41.661,25.288 41.598,25.243C41.535,25.197 41.486,25.133 41.452,25.05C41.418,24.967 41.401,24.871 41.401,24.76C41.401,24.65 41.418,24.553 41.452,24.47C41.486,24.387 41.535,24.323 41.598,24.278C41.661,24.233 41.735,24.21 41.819,24.21C41.902,24.21 41.975,24.231 42.037,24.273C42.1,24.316 42.148,24.376 42.182,24.454C42.216,24.532 42.233,24.622 42.233,24.725C42.233,24.744 42.227,24.759 42.214,24.772C42.201,24.785 42.185,24.792 42.166,24.792L41.535,24.792C41.539,24.912 41.567,25.006 41.617,25.074C41.667,25.142 41.735,25.177 41.819,25.177C41.876,25.177 41.928,25.161 41.975,25.13C42.022,25.099 42.055,25.058 42.075,25.007C42.08,24.995 42.088,24.985 42.099,24.977C42.111,24.969 42.123,24.965 42.137,24.965C42.155,24.965 42.171,24.971 42.184,24.984C42.197,24.997 42.204,25.013 42.204,25.032C42.204,25.039 42.202,25.048 42.2,25.058C42.168,25.134 42.117,25.196 42.047,25.242C41.978,25.287 41.902,25.31 41.819,25.31ZM42.096,24.658C42.087,24.559 42.058,24.482 42.009,24.427C41.96,24.372 41.897,24.344 41.819,24.344C41.743,24.344 41.681,24.372 41.633,24.427C41.585,24.482 41.554,24.559 41.54,24.658L42.096,24.658Z" style="fill-rule:nonzero;"/>
        <path d="M43.242,25.309C43.224,25.309 43.208,25.302 43.195,25.289C43.182,25.276 43.175,25.26 43.175,25.242C43.175,25.234 43.177,25.227 43.179,25.219L43.625,23.917C43.63,23.903 43.639,23.892 43.65,23.883C43.662,23.874 43.675,23.87 43.69,23.87L43.809,23.87C43.824,23.87 43.837,23.874 43.849,23.883C43.861,23.892 43.869,23.903 43.874,23.917L44.32,25.219C44.323,25.227 44.324,25.234 44.324,25.242C44.324,25.26 44.317,25.276 44.304,25.289C44.291,25.302 44.276,25.309 44.257,25.309C44.242,25.309 44.229,25.304 44.217,25.296C44.205,25.287 44.198,25.276 44.194,25.262L44.075,24.918L43.425,24.918L43.306,25.262C43.302,25.276 43.294,25.287 43.282,25.296C43.271,25.304 43.257,25.309 43.242,25.309ZM43.737,24.004L43.469,24.784L44.03,24.784L43.763,24.004L43.737,24.004Z" style="fill-rule:nonzero;"/>
        <path d="M44.61,25.309C44.592,25.309 44.576,25.302 44.563,25.289C44.55,25.276 44.543,25.26 44.543,25.242L44.543,24.281C44.543,24.262 44.55,24.246 44.563,24.233C44.576,24.22 44.592,24.214 44.61,24.214C44.629,24.214 44.645,24.22 44.658,24.233C44.671,24.246 44.677,24.262 44.677,24.281L44.677,24.377C44.72,24.324 44.768,24.283 44.82,24.254C44.872,24.225 44.926,24.21 44.982,24.21C45.029,24.21 45.073,24.22 45.114,24.239C45.155,24.258 45.189,24.285 45.218,24.32C45.228,24.333 45.233,24.348 45.233,24.363C45.233,24.381 45.226,24.397 45.213,24.41C45.2,24.423 45.184,24.429 45.166,24.429C45.145,24.429 45.127,24.421 45.114,24.405C45.08,24.364 45.036,24.344 44.982,24.344C44.924,24.344 44.866,24.372 44.81,24.429C44.754,24.485 44.709,24.558 44.677,24.649L44.677,25.242C44.677,25.26 44.671,25.276 44.658,25.289C44.645,25.302 44.629,25.309 44.61,25.309Z" style="fill-rule:nonzero;"/>
        <path d="M45.833,25.31C45.749,25.31 45.675,25.288 45.612,25.243C45.549,25.197 45.5,25.133 45.466,25.05C45.432,24.967 45.415,24.871 45.415,24.76C45.415,24.65 45.432,24.553 45.466,24.47C45.5,24.387 45.549,24.323 45.612,24.278C45.675,24.233 45.749,24.21 45.833,24.21C45.916,24.21 45.989,24.231 46.051,24.273C46.114,24.316 46.162,24.376 46.196,24.454C46.23,24.532 46.247,24.622 46.247,24.725C46.247,24.744 46.241,24.759 46.228,24.772C46.215,24.785 46.199,24.792 46.181,24.792L45.549,24.792C45.554,24.912 45.581,25.006 45.631,25.074C45.682,25.142 45.749,25.177 45.833,25.177C45.89,25.177 45.942,25.161 45.989,25.13C46.036,25.099 46.07,25.058 46.089,25.007C46.094,24.995 46.102,24.985 46.114,24.977C46.125,24.969 46.137,24.965 46.151,24.965C46.169,24.965 46.185,24.971 46.198,24.984C46.211,24.997 46.218,25.013 46.218,25.032C46.218,25.039 46.216,25.048 46.214,25.058C46.182,25.134 46.131,25.196 46.062,25.242C45.992,25.287 45.916,25.31 45.833,25.31ZM46.11,24.658C46.101,24.559 46.072,24.482 46.024,24.427C45.975,24.372 45.911,24.344 45.833,24.344C45.757,24.344 45.696,24.372 45.647,24.427C45.599,24.482 45.568,24.559 45.554,24.658L46.11,24.658Z" style="fill-rule:nonzero;"/>
        <path d="M46.896,25.31C46.812,25.31 46.737,25.287 46.672,25.24C46.607,25.193 46.556,25.128 46.52,25.045C46.483,24.962 46.465,24.867 46.465,24.76C46.465,24.654 46.483,24.559 46.52,24.476C46.556,24.393 46.607,24.328 46.672,24.281C46.737,24.234 46.812,24.21 46.896,24.21C46.983,24.21 47.06,24.242 47.126,24.305L47.126,24.281C47.126,24.262 47.133,24.246 47.147,24.233C47.161,24.22 47.176,24.214 47.193,24.214C47.212,24.214 47.228,24.22 47.241,24.233C47.254,24.246 47.26,24.262 47.26,24.281L47.26,25.24C47.26,25.258 47.254,25.274 47.241,25.287C47.228,25.3 47.212,25.307 47.193,25.307C47.176,25.307 47.161,25.3 47.147,25.287C47.133,25.274 47.126,25.258 47.126,25.24L47.126,25.216C47.06,25.279 46.983,25.31 46.896,25.31ZM46.896,25.177C46.942,25.177 46.985,25.16 47.026,25.127C47.067,25.094 47.1,25.048 47.126,24.989L47.126,24.532C47.1,24.472 47.067,24.426 47.026,24.393C46.985,24.36 46.942,24.344 46.896,24.344C46.838,24.344 46.786,24.361 46.742,24.396C46.697,24.431 46.662,24.48 46.637,24.543C46.611,24.606 46.599,24.679 46.599,24.76C46.599,24.842 46.611,24.915 46.637,24.978C46.662,25.041 46.697,25.09 46.742,25.125C46.786,25.159 46.838,25.177 46.896,25.177Z" style="fill-rule:nonzero;"/>
        <path d="M48.767,25.309C48.749,25.309 48.733,25.302 48.72,25.289C48.707,25.276 48.701,25.26 48.701,25.242L48.701,24.004L48.299,24.004C48.281,24.004 48.265,23.997 48.252,23.984C48.239,23.971 48.232,23.956 48.232,23.937C48.232,23.918 48.239,23.903 48.252,23.89C48.265,23.877 48.281,23.87 48.299,23.87L49.236,23.87C49.254,23.87 49.27,23.877 49.283,23.89C49.296,23.903 49.303,23.918 49.303,23.937C49.303,23.956 49.296,23.971 49.283,23.984C49.27,23.997 49.254,24.004 49.236,24.004L48.834,24.004L48.834,25.242C48.834,25.26 48.828,25.276 48.815,25.289C48.802,25.302 48.786,25.309 48.767,25.309Z" style="fill-rule:nonzero;"/>
        <path d="M49.773,25.31C49.689,25.31 49.615,25.288 49.552,25.243C49.489,25.197 49.44,25.133 49.406,25.05C49.372,24.967 49.355,24.871 49.355,24.76C49.355,24.65 49.372,24.553 49.406,24.47C49.44,24.387 49.489,24.323 49.552,24.278C49.615,24.233 49.689,24.21 49.773,24.21C49.856,24.21 49.929,24.231 49.991,24.273C50.054,24.316 50.102,24.376 50.136,24.454C50.17,24.532 50.187,24.622 50.187,24.725C50.187,24.744 50.181,24.759 50.168,24.772C50.155,24.785 50.139,24.792 50.12,24.792L49.489,24.792C49.493,24.912 49.521,25.006 49.571,25.074C49.621,25.142 49.689,25.177 49.773,25.177C49.83,25.177 49.882,25.161 49.929,25.13C49.976,25.099 50.01,25.058 50.029,25.007C50.034,24.995 50.042,24.985 50.053,24.977C50.065,24.969 50.077,24.965 50.091,24.965C50.109,24.965 50.125,24.971 50.138,24.984C50.151,24.997 50.158,25.013 50.158,25.032C50.158,25.039 50.156,25.048 50.154,25.058C50.122,25.134 50.071,25.196 50.001,25.242C49.932,25.287 49.856,25.31 49.773,25.31ZM50.05,24.658C50.041,24.559 50.012,24.482 49.963,24.427C49.914,24.372 49.851,24.344 49.773,24.344C49.697,24.344 49.635,24.372 49.587,24.427C49.539,24.482 49.508,24.559 49.494,24.658L50.05,24.658Z" style="fill-rule:nonzero;"/>
        <path d="M50.762,25.316C50.754,25.316 50.749,25.315 50.745,25.314C50.663,25.294 50.598,25.257 50.55,25.203C50.501,25.148 50.477,25.084 50.477,25.009L50.477,23.922C50.477,23.904 50.484,23.888 50.497,23.875C50.51,23.862 50.526,23.855 50.544,23.855C50.563,23.855 50.578,23.862 50.591,23.875C50.605,23.888 50.611,23.904 50.611,23.922L50.611,25.009C50.611,25.053 50.625,25.09 50.654,25.12C50.682,25.15 50.723,25.172 50.776,25.184C50.791,25.186 50.804,25.194 50.814,25.206C50.823,25.219 50.828,25.233 50.828,25.249C50.828,25.268 50.822,25.283 50.809,25.296C50.796,25.309 50.78,25.316 50.762,25.316Z" style="fill-rule:nonzero;"/>
        <path d="M51.408,25.31C51.324,25.31 51.25,25.288 51.187,25.243C51.124,25.197 51.075,25.133 51.041,25.05C51.007,24.967 50.99,24.871 50.99,24.76C50.99,24.65 51.007,24.553 51.041,24.47C51.075,24.387 51.124,24.323 51.187,24.278C51.25,24.233 51.324,24.21 51.408,24.21C51.491,24.21 51.564,24.231 51.627,24.273C51.689,24.316 51.738,24.376 51.772,24.454C51.806,24.532 51.823,24.622 51.823,24.725C51.823,24.744 51.816,24.759 51.803,24.772C51.79,24.785 51.774,24.792 51.756,24.792L51.124,24.792C51.129,24.912 51.156,25.006 51.207,25.074C51.257,25.142 51.324,25.177 51.408,25.177C51.465,25.177 51.517,25.161 51.564,25.13C51.611,25.099 51.645,25.058 51.665,25.007C51.67,24.995 51.678,24.985 51.689,24.977C51.7,24.969 51.712,24.965 51.726,24.965C51.745,24.965 51.76,24.971 51.773,24.984C51.786,24.997 51.793,25.013 51.793,25.032C51.793,25.039 51.792,25.048 51.789,25.058C51.757,25.134 51.706,25.196 51.637,25.242C51.567,25.287 51.491,25.31 51.408,25.31ZM51.685,24.658C51.677,24.559 51.648,24.482 51.599,24.427C51.55,24.372 51.486,24.344 51.408,24.344C51.333,24.344 51.271,24.372 51.222,24.427C51.174,24.482 51.143,24.559 51.13,24.658L51.685,24.658Z" style="fill-rule:nonzero;"/>
        <path d="M52.161,25.673C52.142,25.673 52.127,25.666 52.114,25.653C52.101,25.64 52.094,25.624 52.094,25.606L52.094,24.281C52.094,24.262 52.101,24.246 52.114,24.233C52.127,24.22 52.142,24.214 52.161,24.214C52.18,24.214 52.195,24.22 52.208,24.233C52.221,24.246 52.228,24.262 52.228,24.281L52.228,24.303C52.296,24.241 52.372,24.21 52.456,24.21C52.539,24.21 52.613,24.234 52.678,24.281C52.744,24.328 52.794,24.393 52.83,24.476C52.866,24.559 52.884,24.654 52.884,24.76C52.884,24.867 52.866,24.962 52.83,25.045C52.794,25.128 52.744,25.193 52.678,25.24C52.613,25.287 52.539,25.31 52.456,25.31C52.372,25.31 52.296,25.279 52.228,25.217L52.228,25.606C52.228,25.624 52.221,25.64 52.208,25.653C52.195,25.666 52.18,25.673 52.161,25.673ZM52.456,25.177C52.513,25.177 52.564,25.159 52.609,25.125C52.653,25.09 52.688,25.041 52.713,24.978C52.738,24.915 52.75,24.842 52.75,24.76C52.75,24.679 52.738,24.606 52.713,24.543C52.688,24.48 52.653,24.431 52.609,24.396C52.564,24.361 52.513,24.344 52.456,24.344C52.411,24.344 52.368,24.36 52.327,24.393C52.287,24.426 52.254,24.472 52.228,24.532L52.228,24.989C52.254,25.048 52.287,25.094 52.327,25.127C52.368,25.16 52.411,25.177 52.456,25.177Z" style="fill-rule:nonzero;"/>
        <path d="M53.207,25.309C53.189,25.309 53.173,25.302 53.16,25.289C53.147,25.276 53.14,25.26 53.14,25.242L53.14,23.922C53.14,23.904 53.147,23.888 53.16,23.875C53.173,23.862 53.189,23.855 53.207,23.855C53.225,23.855 53.24,23.862 53.254,23.875C53.267,23.888 53.274,23.904 53.274,23.922L53.274,24.331C53.368,24.25 53.464,24.21 53.562,24.21C53.669,24.21 53.751,24.242 53.81,24.305C53.869,24.368 53.899,24.457 53.899,24.571L53.899,25.242C53.899,25.26 53.892,25.276 53.879,25.289C53.866,25.302 53.85,25.309 53.832,25.309C53.813,25.309 53.797,25.302 53.784,25.289C53.771,25.276 53.765,25.26 53.765,25.242L53.765,24.571C53.765,24.494 53.748,24.437 53.715,24.4C53.683,24.363 53.632,24.344 53.562,24.344C53.515,24.344 53.466,24.36 53.416,24.391C53.366,24.423 53.319,24.468 53.274,24.526L53.274,25.242C53.274,25.26 53.267,25.276 53.254,25.289C53.24,25.302 53.225,25.309 53.207,25.309Z" style="fill-rule:nonzero;"/>
        <path d="M54.566,25.31C54.48,25.31 54.405,25.288 54.341,25.243C54.276,25.197 54.227,25.133 54.192,25.05C54.157,24.967 54.14,24.871 54.14,24.76C54.14,24.65 54.157,24.553 54.192,24.47C54.227,24.387 54.276,24.323 54.341,24.278C54.405,24.233 54.48,24.21 54.566,24.21C54.651,24.21 54.726,24.233 54.791,24.278C54.855,24.323 54.905,24.387 54.939,24.47C54.974,24.553 54.991,24.65 54.991,24.76C54.991,24.871 54.974,24.967 54.939,25.05C54.905,25.133 54.855,25.197 54.791,25.243C54.726,25.288 54.651,25.31 54.566,25.31ZM54.566,25.177C54.656,25.177 54.727,25.14 54.779,25.066C54.831,24.992 54.857,24.89 54.857,24.76C54.857,24.63 54.831,24.528 54.779,24.455C54.727,24.381 54.656,24.344 54.566,24.344C54.475,24.344 54.404,24.381 54.352,24.455C54.3,24.528 54.274,24.63 54.274,24.76C54.274,24.89 54.3,24.992 54.352,25.066C54.404,25.14 54.475,25.177 54.566,25.177Z" style="fill-rule:nonzero;"/>
        <path d="M55.318,25.309C55.3,25.309 55.284,25.302 55.271,25.289C55.258,25.276 55.251,25.26 55.251,25.242L55.251,24.281C55.251,24.262 55.258,24.246 55.271,24.233C55.284,24.22 55.3,24.214 55.318,24.214C55.337,24.214 55.353,24.22 55.366,24.233C55.379,24.246 55.385,24.262 55.385,24.281L55.385,24.348C55.488,24.256 55.595,24.21 55.707,24.21C55.77,24.21 55.827,24.225 55.877,24.256C55.927,24.286 55.966,24.329 55.994,24.383C56.022,24.438 56.036,24.499 56.036,24.569L56.036,25.242C56.036,25.26 56.029,25.276 56.016,25.289C56.003,25.302 55.987,25.309 55.969,25.309C55.95,25.309 55.934,25.302 55.921,25.289C55.908,25.276 55.902,25.26 55.902,25.242L55.902,24.569C55.902,24.501 55.884,24.446 55.848,24.405C55.812,24.364 55.765,24.344 55.707,24.344C55.654,24.344 55.599,24.361 55.544,24.394C55.489,24.428 55.436,24.477 55.385,24.541L55.385,25.242C55.385,25.26 55.379,25.276 55.366,25.289C55.353,25.302 55.337,25.309 55.318,25.309Z" style="fill-rule:nonzero;"/>
        <path d="M56.432,25.671C56.394,25.671 56.358,25.663 56.322,25.647C56.31,25.642 56.3,25.634 56.293,25.623C56.286,25.611 56.283,25.599 56.283,25.585C56.283,25.567 56.289,25.551 56.302,25.538C56.315,25.525 56.331,25.519 56.35,25.519C56.361,25.519 56.371,25.52 56.38,25.524C56.396,25.533 56.413,25.537 56.432,25.537C56.456,25.537 56.479,25.53 56.5,25.515C56.521,25.5 56.537,25.479 56.547,25.453L56.636,25.227L56.264,24.305C56.261,24.298 56.259,24.289 56.259,24.279C56.259,24.26 56.265,24.245 56.278,24.232C56.291,24.219 56.307,24.212 56.326,24.212C56.339,24.212 56.352,24.216 56.363,24.224C56.374,24.232 56.382,24.242 56.387,24.255L56.707,25.046L57.017,24.257C57.023,24.243 57.032,24.232 57.043,24.224C57.054,24.216 57.067,24.212 57.08,24.212C57.099,24.212 57.115,24.219 57.128,24.232C57.141,24.245 57.147,24.26 57.147,24.279C57.147,24.289 57.145,24.298 57.141,24.305L56.671,25.504C56.65,25.554 56.618,25.595 56.576,25.625C56.533,25.656 56.485,25.671 56.432,25.671Z" style="fill-rule:nonzero;"/>
        <path d="M58.204,25.309C58.186,25.309 58.17,25.302 58.157,25.289C58.144,25.276 58.138,25.26 58.138,25.242L58.138,23.937C58.138,23.918 58.144,23.903 58.157,23.89C58.17,23.877 58.186,23.87 58.204,23.87L58.286,23.87C58.299,23.87 58.31,23.874 58.321,23.88C58.331,23.887 58.34,23.896 58.346,23.907L59,25.126L59,23.933C59,23.915 59.007,23.899 59.02,23.886C59.034,23.873 59.049,23.866 59.067,23.866C59.085,23.866 59.101,23.873 59.114,23.886C59.127,23.899 59.134,23.915 59.134,23.933L59.134,25.238C59.134,25.256 59.127,25.272 59.114,25.285C59.101,25.298 59.085,25.305 59.067,25.305L58.985,25.305C58.973,25.305 58.961,25.301 58.951,25.295C58.94,25.288 58.932,25.279 58.926,25.268L58.271,24.049L58.271,25.242C58.271,25.26 58.265,25.276 58.251,25.289C58.237,25.302 58.222,25.309 58.204,25.309Z" style="fill-rule:nonzero;"/>
        <path d="M59.845,25.31C59.761,25.31 59.688,25.288 59.624,25.243C59.561,25.197 59.513,25.133 59.478,25.05C59.444,24.967 59.427,24.871 59.427,24.76C59.427,24.65 59.444,24.553 59.478,24.47C59.513,24.387 59.561,24.323 59.624,24.278C59.688,24.233 59.761,24.21 59.845,24.21C59.928,24.21 60.001,24.231 60.064,24.273C60.126,24.316 60.175,24.376 60.209,24.454C60.243,24.532 60.26,24.622 60.26,24.725C60.26,24.744 60.253,24.759 60.24,24.772C60.227,24.785 60.212,24.792 60.193,24.792L59.561,24.792C59.566,24.912 59.594,25.006 59.644,25.074C59.694,25.142 59.761,25.177 59.845,25.177C59.902,25.177 59.955,25.161 60.002,25.13C60.049,25.099 60.082,25.058 60.102,25.007C60.107,24.995 60.115,24.985 60.126,24.977C60.137,24.969 60.15,24.965 60.163,24.965C60.182,24.965 60.198,24.971 60.211,24.984C60.224,24.997 60.23,25.013 60.23,25.032C60.23,25.039 60.229,25.048 60.226,25.058C60.194,25.134 60.143,25.196 60.074,25.242C60.005,25.287 59.928,25.31 59.845,25.31ZM60.122,24.658C60.114,24.559 60.085,24.482 60.036,24.427C59.987,24.372 59.924,24.344 59.845,24.344C59.77,24.344 59.708,24.372 59.66,24.427C59.611,24.482 59.58,24.559 59.567,24.658L60.122,24.658Z" style="fill-rule:nonzero;"/>
        <path d="M60.754,25.309C60.736,25.309 60.72,25.302 60.707,25.289C60.694,25.276 60.687,25.26 60.687,25.242L60.687,24.35L60.477,24.35C60.459,24.35 60.443,24.343 60.43,24.33C60.417,24.317 60.41,24.301 60.41,24.283C60.41,24.264 60.417,24.248 60.43,24.235C60.443,24.222 60.459,24.216 60.477,24.216L60.687,24.216L60.687,23.933C60.687,23.915 60.694,23.899 60.707,23.886C60.72,23.873 60.736,23.866 60.754,23.866C60.773,23.866 60.789,23.873 60.802,23.886C60.815,23.899 60.821,23.915 60.821,23.933L60.821,24.216L61.031,24.216C61.05,24.216 61.066,24.222 61.079,24.235C61.092,24.248 61.098,24.264 61.098,24.283C61.098,24.301 61.092,24.317 61.079,24.33C61.066,24.343 61.05,24.35 61.031,24.35L60.821,24.35L60.821,25.242C60.821,25.26 60.815,25.276 60.802,25.289C60.789,25.302 60.773,25.309 60.754,25.309Z" style="fill-rule:nonzero;"/>
        <path d="M61.622,25.305C61.606,25.305 61.592,25.3 61.579,25.29C61.567,25.28 61.56,25.268 61.557,25.253L61.323,24.294C61.322,24.29 61.321,24.285 61.321,24.277C61.321,24.259 61.328,24.243 61.341,24.23C61.354,24.217 61.369,24.21 61.388,24.21C61.404,24.21 61.418,24.215 61.43,24.225C61.442,24.235 61.449,24.247 61.453,24.262L61.669,25.143L61.879,24.288C61.882,24.273 61.89,24.261 61.902,24.251C61.914,24.241 61.928,24.236 61.944,24.236C61.96,24.236 61.974,24.241 61.986,24.251C61.999,24.261 62.006,24.273 62.009,24.288L62.219,25.143L62.434,24.262C62.438,24.247 62.446,24.235 62.457,24.225C62.469,24.215 62.483,24.21 62.499,24.21C62.518,24.21 62.534,24.217 62.547,24.23C62.56,24.243 62.566,24.259 62.566,24.277C62.566,24.285 62.566,24.29 62.564,24.294L62.33,25.253C62.328,25.268 62.32,25.28 62.308,25.29C62.295,25.3 62.281,25.305 62.265,25.305L62.174,25.305C62.158,25.305 62.144,25.3 62.132,25.29C62.12,25.28 62.113,25.268 62.109,25.253L61.944,24.582L61.778,25.253C61.775,25.268 61.767,25.28 61.755,25.29C61.743,25.3 61.729,25.305 61.713,25.305L61.622,25.305Z" style="fill-rule:nonzero;"/>
        <path d="M63.189,25.31C63.103,25.31 63.028,25.288 62.964,25.243C62.899,25.197 62.85,25.133 62.815,25.05C62.781,24.967 62.763,24.871 62.763,24.76C62.763,24.65 62.781,24.553 62.815,24.47C62.85,24.387 62.899,24.323 62.964,24.278C63.028,24.233 63.103,24.21 63.189,24.21C63.274,24.21 63.349,24.233 63.414,24.278C63.478,24.323 63.528,24.387 63.562,24.47C63.597,24.553 63.614,24.65 63.614,24.76C63.614,24.871 63.597,24.967 63.562,25.05C63.528,25.133 63.478,25.197 63.414,25.243C63.349,25.288 63.274,25.31 63.189,25.31ZM63.189,25.177C63.279,25.177 63.35,25.14 63.402,25.066C63.455,24.992 63.481,24.89 63.481,24.76C63.481,24.63 63.455,24.528 63.402,24.455C63.35,24.381 63.279,24.344 63.189,24.344C63.098,24.344 63.027,24.381 62.975,24.455C62.923,24.528 62.897,24.63 62.897,24.76C62.897,24.89 62.923,24.992 62.975,25.066C63.027,25.14 63.098,25.177 63.189,25.177Z" style="fill-rule:nonzero;"/>
        <path d="M63.938,25.309C63.919,25.309 63.903,25.302 63.89,25.289C63.877,25.276 63.871,25.26 63.871,25.242L63.871,24.281C63.871,24.262 63.877,24.246 63.89,24.233C63.903,24.22 63.919,24.214 63.938,24.214C63.956,24.214 63.972,24.22 63.985,24.233C63.998,24.246 64.005,24.262 64.005,24.281L64.005,24.377C64.048,24.324 64.096,24.283 64.148,24.254C64.2,24.225 64.254,24.21 64.309,24.21C64.356,24.21 64.4,24.22 64.441,24.239C64.482,24.258 64.517,24.285 64.545,24.32C64.555,24.333 64.56,24.348 64.56,24.363C64.56,24.381 64.554,24.397 64.541,24.41C64.528,24.423 64.512,24.429 64.493,24.429C64.472,24.429 64.455,24.421 64.441,24.405C64.408,24.364 64.364,24.344 64.309,24.344C64.251,24.344 64.194,24.372 64.137,24.429C64.081,24.485 64.037,24.558 64.005,24.649L64.005,25.242C64.005,25.26 63.998,25.276 63.985,25.289C63.972,25.302 63.956,25.309 63.938,25.309Z" style="fill-rule:nonzero;"/>
        <path d="M64.841,25.309C64.822,25.309 64.807,25.302 64.794,25.289C64.781,25.276 64.774,25.26 64.774,25.242L64.774,23.922C64.774,23.904 64.781,23.888 64.794,23.875C64.807,23.862 64.822,23.855 64.841,23.855C64.858,23.855 64.874,23.862 64.887,23.875C64.901,23.888 64.908,23.904 64.908,23.922L64.908,24.76L65.424,24.232C65.436,24.219 65.452,24.212 65.473,24.212C65.491,24.212 65.507,24.219 65.52,24.232C65.533,24.245 65.54,24.26 65.54,24.279C65.54,24.299 65.533,24.314 65.519,24.325L65.161,24.692L65.549,25.201C65.559,25.213 65.564,25.227 65.564,25.242C65.564,25.26 65.557,25.276 65.544,25.289C65.531,25.302 65.516,25.309 65.497,25.309C65.476,25.309 65.458,25.3 65.443,25.282L65.066,24.788L64.908,24.952L64.908,25.242C64.908,25.26 64.901,25.276 64.887,25.289C64.874,25.302 64.858,25.309 64.841,25.309Z" style="fill-rule:nonzero;"/>
    </g>
    <g transform="matrix(1.93548,0,0,1.93548,2.38981,0)">
        <circle cx="15.651" cy="15.483" r="6.465" style="fill:none;stroke:rgb(30,160,143);stroke-width:0.26px;"/>
    </g>
</svg>
